<svg width="33" height="21" viewBox="0 0 33 21" fill="none" xmlns="http://www.w3.org/2000/svg">
<path d="M21.1969 18.5532H12.4475V2.82935H21.197L21.1969 18.5532Z" fill="#F2994A"/>
<path d="M32.9998 10.6914C32.9998 16.2143 28.5234 20.6914 23.0011 20.6914C20.7591 20.6947 18.5815 19.9414 16.8208 18.5533C19.147 16.7223 20.6405 13.8811 20.6405 10.6914C20.6405 7.50167 19.147 4.66055 16.8208 2.8295C18.5815 1.44149 20.759 0.688163 23.001 0.691417C28.5232 0.691417 32.9997 5.1685 32.9997 10.6914" fill="#F2C94C"/>
<path d="M13.0021 10.6914C13.0021 7.50183 14.4956 4.66055 16.8211 2.8295C15.0608 1.44145 12.8835 0.688105 10.6418 0.691417C5.1195 0.691417 0.643066 5.1685 0.643066 10.6914C0.643066 16.2143 5.1195 20.6914 10.6418 20.6914C12.8836 20.6947 15.0609 19.9414 16.8213 18.5533C14.4959 16.7226 13.0021 13.8811 13.0021 10.6914Z" fill="#EB5757"/>
</svg>