<svg width="34" height="20" viewBox="0 0 34 20" fill="none" xmlns="http://www.w3.org/2000/svg">
<path fill-rule="evenodd" clip-rule="evenodd" d="M17 17.4117C18.0558 16.4718 18.8986 15.3269 19.4744 14.0506C20.0502 12.7742 20.3463 11.3945 20.3437 9.99991C20.3463 8.60533 20.0503 7.22561 19.4744 5.94924C18.8986 4.67287 18.0558 3.52804 17 2.58816C15.1947 0.980004 12.7998 0 10.1718 0C4.55422 0 0 4.47706 0 9.99991C0 15.5226 4.55422 19.9998 10.1718 19.9998C12.7998 19.9998 15.1949 19.0198 17 17.4117Z" fill="#3A9BD9"/>
<path fill-rule="evenodd" clip-rule="evenodd" d="M23.8284 0C21.2004 0 18.8051 0.980004 17.0002 2.58816C16.6321 2.91639 16.2888 3.27023 15.9732 3.64691H18.0264C18.3083 3.98312 18.5675 4.33683 18.8024 4.70583H15.1977C14.9807 5.04705 14.7849 5.40066 14.6113 5.76475H19.3879C19.5524 6.10936 19.6965 6.46285 19.8196 6.8235H14.1806C14.0623 7.17087 13.9637 7.52432 13.8853 7.88224H20.1151C20.2676 8.5783 20.3443 9.28812 20.344 9.99991C20.344 11.1101 20.1594 12.1782 19.8197 13.1761H14.1806C14.3032 13.5369 14.447 13.8904 14.6113 14.2351H19.3879C19.2146 14.5992 19.019 14.9528 18.8022 15.294H15.1977C15.4324 15.663 15.6914 16.0167 15.973 16.3529H18.0264C17.7112 16.7298 17.3682 17.0837 17.0002 17.4118C18.8051 19.02 21.2004 20 23.8284 20C29.4458 20 34.0002 15.5228 34.0002 10.0001C34.0002 4.47706 29.4458 0 23.8284 0Z" fill="#CC2131"/>
<path fill-rule="evenodd" clip-rule="evenodd" d="M30.4948 12.1673C30.4948 11.9889 30.6418 11.8442 30.8232 11.8442C31.0045 11.8442 31.1515 11.9889 31.1515 12.1673C31.1515 12.3457 31.0045 12.4901 30.8232 12.4901C30.6418 12.4901 30.4948 12.3455 30.4948 12.1673ZM30.823 12.4124C30.9607 12.4124 31.0725 12.3026 31.0725 12.1671C31.0725 12.0313 30.9607 11.9215 30.823 11.9215C30.6849 11.9215 30.5735 12.0313 30.5735 12.1671C30.5735 12.3026 30.685 12.4124 30.823 12.4124ZM30.7786 12.3088H30.7112V12.0251H30.8333C30.8586 12.0251 30.8848 12.0254 30.9067 12.0396C30.9183 12.0475 30.9278 12.0581 30.9342 12.0704C30.9406 12.0827 30.9439 12.0964 30.9436 12.1102C30.9436 12.1425 30.9247 12.1723 30.8937 12.1836L30.9469 12.3087H30.8724L30.8281 12.1964H30.7788V12.3088V12.1482H30.8161C30.8299 12.1482 30.8451 12.1492 30.857 12.1427C30.8623 12.139 30.8666 12.1341 30.8696 12.1284C30.8726 12.1227 30.8741 12.1164 30.874 12.11C30.8739 12.1043 30.8724 12.0986 30.8695 12.0935C30.8667 12.0885 30.8626 12.0842 30.8577 12.0809C30.8461 12.0744 30.8272 12.0758 30.8148 12.0758H30.779V12.3088H30.7786ZM8.90127 12.4901H7.63532L8.3877 8.59277L6.65542 12.4901H5.50105L5.29006 8.61511L4.53533 12.4901H3.38623L4.36813 7.42034H6.34357L6.44806 10.559L7.84086 7.42034H9.89935L8.90127 12.4901ZM23.0494 12.4395C22.703 12.533 22.4322 12.5733 22.1396 12.5733C21.4919 12.5733 21.1383 12.2539 21.1383 11.6679C21.1383 11.5519 21.1513 11.4285 21.1755 11.298L21.2526 10.8949L21.3118 10.5686L21.8986 7.42017H23.1577L22.9752 8.36701H23.6213L23.4477 9.36936H22.7989L22.4653 11.0896C22.4529 11.1458 22.4457 11.2029 22.4436 11.2604C22.4436 11.4734 22.5747 11.5659 22.8756 11.5659C23.0197 11.5659 23.1315 11.5532 23.2171 11.5275L23.0494 12.4395ZM26.7469 8.40088C26.6408 8.35974 26.6159 8.35974 26.6035 8.35637C26.5364 8.34182 26.5006 8.33331 26.4945 8.33225C26.4524 8.32507 26.4098 8.32163 26.3671 8.32196C25.9514 8.32196 25.6518 8.50392 25.2643 8.99144L25.3761 8.36665H24.2295L23.4579 12.4899H24.7247C25.178 9.96825 25.3721 9.52666 25.9798 9.52666C26.0256 9.52666 26.0785 9.53021 26.1399 9.53712L26.2878 9.56674L26.7469 8.40088ZM18.0308 9.6696C18.0308 10.1905 18.3294 10.5492 19.0062 10.8188C19.5248 11.0259 19.605 11.0866 19.605 11.2739C19.605 11.5305 19.3764 11.6463 18.8699 11.6463C18.4875 11.6463 18.1322 11.5957 17.722 11.4831L17.5463 12.4342L17.603 12.4436L17.8376 12.4858C17.9132 12.4986 18.0246 12.5108 18.1724 12.5218C18.477 12.5451 18.7127 12.5561 18.8788 12.5561C20.2301 12.5561 20.8544 12.1207 20.8544 11.1802C20.8544 10.6143 20.5934 10.2825 19.9517 10.0326C19.4147 9.82389 19.3525 9.7776 19.3525 9.58518C19.3525 9.36297 19.5655 9.24876 19.9793 9.24876C20.231 9.24876 20.5742 9.27199 20.8996 9.31065L21.0821 8.35619C20.7506 8.31185 20.2476 8.2755 19.9552 8.2755C18.5224 8.27567 18.0264 8.90915 18.0308 9.6696ZM13.0168 12.4901H11.9647L11.9893 12.0627C11.6689 12.4011 11.2418 12.5614 10.6614 12.5614C9.97532 12.5614 9.50445 12.1021 9.50445 11.4352C9.50445 10.4308 10.3224 9.84535 11.7283 9.84535C11.8724 9.84535 12.0554 9.85652 12.2441 9.87709C12.2833 9.7416 12.294 9.68308 12.294 9.6093C12.294 9.33637 12.0732 9.23422 11.4821 9.23422C11.1206 9.23422 10.7121 9.27891 10.43 9.34914L10.2546 9.39294L10.1411 9.41955L10.3166 8.49257C10.9478 8.33367 11.3643 8.27355 11.8323 8.27355C12.9203 8.27355 13.4953 8.69243 13.4953 9.48303C13.4953 9.68645 13.4762 9.84091 13.3924 10.2999L13.1278 11.7626L13.0833 12.0251L13.051 12.2347L13.0293 12.3782L13.0168 12.4901ZM12.0932 10.6532C11.9994 10.6418 11.9049 10.6361 11.8103 10.6361C11.0928 10.6361 10.7293 10.847 10.7293 11.2634C10.7293 11.52 10.9067 11.6839 11.1835 11.6839C11.6996 11.6841 12.0714 11.2629 12.0932 10.6532ZM17.1699 12.4011C16.7471 12.513 16.3108 12.5693 15.8727 12.5683C14.4574 12.5672 13.7197 11.9338 13.7197 10.7211C13.7197 9.30569 14.6582 8.26361 15.9322 8.26361C16.9744 8.26361 17.6399 8.84726 17.6399 9.76235C17.6399 10.0661 17.5945 10.3623 17.4845 10.7803H14.9673C14.9596 10.8231 14.9556 10.8664 14.9552 10.9098C14.9552 11.3877 15.3304 11.6316 16.0657 11.6316C16.5179 11.6316 16.9266 11.5509 17.3804 11.3707L17.1699 12.4011ZM16.4957 9.94768C16.5026 9.86184 16.5062 9.79161 16.5062 9.73735C16.5062 9.40252 16.2844 9.20602 15.9074 9.20602C15.5047 9.20602 15.2167 9.46956 15.0998 9.94519L16.4957 9.94768ZM30.6821 10.6207C30.4926 11.9923 29.5183 12.6006 28.2231 12.6006C26.7909 12.6006 26.2124 11.7465 26.2124 10.7C26.2124 9.23865 27.1921 8.24854 28.7052 8.24854C30.0186 8.24854 30.7159 9.06273 30.7159 10.1094C30.7159 10.3641 30.7156 10.3809 30.6821 10.6207V10.6207ZM29.3784 10.0931C29.3784 9.6618 29.2003 9.25462 28.6813 9.25462C28.0352 9.25462 27.6348 10.0053 27.6348 10.668C27.6348 11.227 27.9092 11.6027 28.3618 11.5947C28.6362 11.5947 29.2214 11.2272 29.3371 10.5854C29.3642 10.4357 29.3784 10.2715 29.3784 10.0931V10.0931Z" fill="white"/>
</svg>
