<svg width="58" height="24" viewBox="0 0 58 24" fill="none" xmlns="http://www.w3.org/2000/svg">
<g filter="url(#filter0_d_4523_203)">
<mask id="path-1-inside-1_4523_203" fill="white">
<path d="M21.7537 15.1696L24.28 0.348932H28.3193L25.7923 15.1696H21.7537ZM40.3679 0.674064C39.2087 0.254149 37.9841 0.0434404 36.7512 0.0517502C32.7648 0.0517502 29.9564 2.05937 29.9322 4.93729C29.9103 7.06435 31.9375 8.25073 33.468 8.9585C35.0385 9.6844 35.5663 10.1472 35.5588 10.7952C35.549 11.7873 34.3043 12.2402 33.1451 12.2402C31.53 12.2402 30.6725 12.0134 29.3469 11.4637L28.8275 11.2285L28.2611 14.542C29.2033 14.9548 30.9462 15.3132 32.755 15.3314C36.9962 15.3314 39.7494 13.3472 39.7811 10.2742C39.7963 8.59024 38.7225 7.30856 36.3936 6.25222C34.9834 5.57168 34.1198 5.11042 34.1289 4.41703C34.1289 3.80227 34.8601 3.14445 36.4397 3.14445C37.4746 3.12128 38.503 3.31444 39.459 3.71157L39.8205 3.88244L40.3679 0.674064ZM50.7454 0.348932H47.6376C46.675 0.348932 45.9544 0.612087 45.5317 1.5724L39.5581 15.0939H43.8099C43.8099 15.0939 44.4905 13.2958 44.647 12.9011L49.7412 12.9071C49.8599 13.4183 50.2252 15.0939 50.2252 15.0939H53.9999L50.7454 0.348932ZM45.8039 9.87648C46.1374 9.02354 47.4115 5.73878 47.4115 5.73878C47.3873 5.7781 47.7427 4.88131 47.9461 4.32554L48.2191 5.60195C48.2191 5.60195 48.9919 9.13545 49.1529 9.87648H45.8039ZM18.326 0.348932L14.3849 10.4201L13.9653 8.37325C13.2318 6.01405 10.9459 3.45825 8.39014 2.17884L11.994 15.0939L16.2526 15.0894L22.59 0.348932H18.3064"/>
</mask>
<path d="M21.7537 15.1696L24.28 0.348932H28.3193L25.7923 15.1696H21.7537ZM40.3679 0.674064C39.2087 0.254149 37.9841 0.0434404 36.7512 0.0517502C32.7648 0.0517502 29.9564 2.05937 29.9322 4.93729C29.9103 7.06435 31.9375 8.25073 33.468 8.9585C35.0385 9.6844 35.5663 10.1472 35.5588 10.7952C35.549 11.7873 34.3043 12.2402 33.1451 12.2402C31.53 12.2402 30.6725 12.0134 29.3469 11.4637L28.8275 11.2285L28.2611 14.542C29.2033 14.9548 30.9462 15.3132 32.755 15.3314C36.9962 15.3314 39.7494 13.3472 39.7811 10.2742C39.7963 8.59024 38.7225 7.30856 36.3936 6.25222C34.9834 5.57168 34.1198 5.11042 34.1289 4.41703C34.1289 3.80227 34.8601 3.14445 36.4397 3.14445C37.4746 3.12128 38.503 3.31444 39.459 3.71157L39.8205 3.88244L40.3679 0.674064ZM50.7454 0.348932H47.6376C46.675 0.348932 45.9544 0.612087 45.5317 1.5724L39.5581 15.0939H43.8099C43.8099 15.0939 44.4905 13.2958 44.647 12.9011L49.7412 12.9071C49.8599 13.4183 50.2252 15.0939 50.2252 15.0939H53.9999L50.7454 0.348932ZM45.8039 9.87648C46.1374 9.02354 47.4115 5.73878 47.4115 5.73878C47.3873 5.7781 47.7427 4.88131 47.9461 4.32554L48.2191 5.60195C48.2191 5.60195 48.9919 9.13545 49.1529 9.87648H45.8039ZM18.326 0.348932L14.3849 10.4201L13.9653 8.37325C13.2318 6.01405 10.9459 3.45825 8.39014 2.17884L11.994 15.0939L16.2526 15.0894L22.59 0.348932H18.3064" fill="#2F80ED"/>
<path d="M21.7537 15.1696L21.6809 15.1572L21.6663 15.2433H21.7537V15.1696ZM24.28 0.348932V0.275178H24.2177L24.2073 0.336539L24.28 0.348932ZM28.3193 0.348932L28.3921 0.361329L28.4067 0.275178H28.3193V0.348932ZM25.7923 15.1696V15.2433H25.8545L25.865 15.182L25.7923 15.1696ZM40.3679 0.674064L40.4406 0.686469L40.451 0.625711L40.393 0.604719L40.3679 0.674064ZM36.7512 0.0517502L36.7512 0.125506L36.7517 0.125503L36.7512 0.0517502ZM29.9322 4.93729L30.006 4.93805L30.006 4.93791L29.9322 4.93729ZM33.468 8.9585L33.437 9.02544L33.437 9.02544L33.468 8.9585ZM35.5588 10.7952L35.485 10.7943L35.485 10.7945L35.5588 10.7952ZM29.3469 11.4637L29.3165 11.5309L29.3187 11.5318L29.3469 11.4637ZM28.8275 11.2285L28.8579 11.1613L28.7709 11.1219L28.7548 11.216L28.8275 11.2285ZM28.2611 14.542L28.1884 14.5295L28.1787 14.5864L28.2315 14.6095L28.2611 14.542ZM32.755 15.3314L32.7542 15.4051H32.755V15.3314ZM39.7811 10.2742L39.8549 10.275L39.8549 10.2749L39.7811 10.2742ZM36.3936 6.25222L36.3615 6.31866L36.3631 6.31938L36.3936 6.25222ZM34.1289 4.41703L34.2026 4.41799V4.41703H34.1289ZM36.4397 3.14445V3.21822L36.4413 3.21819L36.4397 3.14445ZM39.459 3.71157L39.4906 3.64481L39.4873 3.64346L39.459 3.71157ZM39.8205 3.88244L39.7889 3.94912L39.8768 3.99067L39.8932 3.89485L39.8205 3.88244ZM50.7454 0.348932L50.8174 0.333036L50.8046 0.275178H50.7454V0.348932ZM45.5317 1.5724L45.5991 1.60221L45.5992 1.60212L45.5317 1.5724ZM39.5581 15.0939L39.4906 15.0641L39.4448 15.1677H39.5581V15.0939ZM43.8099 15.0939V15.1677H43.8609L43.8789 15.12L43.8099 15.0939ZM44.647 12.9011L44.6471 12.8273L44.5969 12.8273L44.5784 12.8739L44.647 12.9011ZM49.7412 12.9071L49.8131 12.8905L49.7998 12.8335L49.7413 12.8334L49.7412 12.9071ZM50.2252 15.0939L50.1531 15.1096L50.1657 15.1677H50.2252V15.0939ZM53.9999 15.0939V15.1677H54.0917L54.0719 15.078L53.9999 15.0939ZM45.8039 9.87648L45.7352 9.84962L45.6959 9.95023H45.8039V9.87648ZM47.4115 5.73878L47.4803 5.76546L47.3487 5.70013L47.4115 5.73878ZM47.9461 4.32554L48.0182 4.31011L47.9647 4.06001L47.8768 4.30019L47.9461 4.32554ZM48.2191 5.60195L48.1469 5.61738L48.147 5.61771L48.2191 5.60195ZM49.1529 9.87648V9.95023H49.2444L49.225 9.86081L49.1529 9.87648ZM14.3849 10.4201L14.3127 10.435L14.3628 10.6792L14.4536 10.447L14.3849 10.4201ZM13.9653 8.37325L14.0379 8.35836L14.0357 8.35135L13.9653 8.37325ZM8.39014 2.17884L8.42315 2.11289L8.27438 2.03841L8.3191 2.19866L8.39014 2.17884ZM11.994 15.0939L11.9229 15.1138L11.938 15.1678L11.9941 15.1677L11.994 15.0939ZM16.2526 15.0894L16.2527 15.1632L16.3012 15.1631L16.3204 15.1185L16.2526 15.0894ZM22.59 0.348932L22.6577 0.378063L22.702 0.275178H22.59V0.348932ZM21.8264 15.182L24.3527 0.361326L24.2073 0.336539L21.6809 15.1572L21.8264 15.182ZM24.28 0.422687H28.3193V0.275178H24.28V0.422687ZM28.2466 0.336535L25.7196 15.1572L25.865 15.182L28.3921 0.361329L28.2466 0.336535ZM25.7923 15.0958H21.7537V15.2433H25.7923V15.0958ZM40.393 0.604719C39.2256 0.18183 37.9924 -0.0303713 36.7507 -0.0220027L36.7517 0.125503C37.9759 0.117252 39.1918 0.326468 40.3428 0.743409L40.393 0.604719ZM36.7512 -0.0220044C34.7464 -0.0220044 33.0317 0.482732 31.813 1.35533C30.5929 2.22887 29.8708 3.47117 29.8585 4.93667L30.006 4.93791C30.0179 3.52548 30.712 2.32501 31.8988 1.47527C33.087 0.624577 34.7696 0.125505 36.7512 0.125505V-0.0220044ZM29.8585 4.93653C29.8472 6.02673 30.3621 6.8736 31.0676 7.53397C31.7718 8.1932 32.6699 8.6707 33.437 9.02544L33.4989 8.89155C32.7356 8.53853 31.8549 8.06896 31.1684 7.42629C30.4831 6.78476 29.9953 5.97491 30.006 4.93805L29.8585 4.93653ZM33.437 9.02544C34.2217 9.38812 34.7378 9.68161 35.0565 9.96147C35.3715 10.238 35.4885 10.4964 35.485 10.7943L35.6325 10.7961C35.6366 10.4459 35.4935 10.1489 35.1538 9.85063C34.8179 9.55563 34.2848 9.25478 33.4989 8.89155L33.437 9.02544ZM35.485 10.7945C35.4805 11.2536 35.1921 11.5944 34.749 11.8243C34.3051 12.0545 33.7167 12.1664 33.1451 12.1664V12.314C33.7328 12.314 34.3462 12.1994 34.8169 11.9552C35.2884 11.7106 35.6273 11.3289 35.6325 10.7959L35.485 10.7945ZM33.1451 12.1664C31.5412 12.1664 30.6933 11.9422 29.3752 11.3955L29.3187 11.5318C30.6517 12.0846 31.5188 12.314 33.1451 12.314V12.1664ZM29.3774 11.3965L28.8579 11.1613L28.7971 11.2957L29.3165 11.5309L29.3774 11.3965ZM28.7548 11.216L28.1884 14.5295L28.3338 14.5544L28.9002 11.2409L28.7548 11.216ZM28.2315 14.6095C29.1853 15.0275 30.9387 15.3869 32.7542 15.4051L32.7557 15.2576C30.9537 15.2396 29.2213 14.8822 28.2907 14.4744L28.2315 14.6095ZM32.755 15.4051C34.8861 15.4051 36.6512 14.9068 37.8897 14.015C39.1302 13.1218 39.8388 11.836 39.8549 10.275L39.7074 10.2734C39.6918 11.7854 39.0078 13.0282 37.8035 13.8953C36.5972 14.7639 34.8651 15.2576 32.755 15.2576V15.4051ZM39.8549 10.2749C39.8626 9.41513 39.5917 8.65668 39.0228 7.98038C38.4555 7.30587 37.594 6.7157 36.424 6.18505L36.3631 6.31938C37.5221 6.84508 38.362 7.42392 38.9099 8.07533C39.4564 8.72494 39.7148 9.44931 39.7074 10.2735L39.8549 10.2749ZM36.4256 6.18579C35.7191 5.84483 35.1572 5.56227 34.7726 5.27999C34.3879 4.99752 34.1986 4.7284 34.2026 4.41799L34.0551 4.41606C34.0501 4.79905 34.2881 5.10725 34.6853 5.3989C35.0829 5.69072 35.6579 5.97907 36.3615 6.31864L36.4256 6.18579ZM34.2026 4.41703C34.2026 4.14117 34.3666 3.844 34.7315 3.61248C35.0965 3.38083 35.6592 3.21821 36.4397 3.21821V3.0707C35.6405 3.0707 35.0479 3.23698 34.6524 3.48793C34.2567 3.73902 34.0551 4.07813 34.0551 4.41703H34.2026ZM36.4413 3.21819C37.466 3.19525 38.4842 3.38649 39.4307 3.77968L39.4873 3.64346C38.5218 3.24239 37.4833 3.04732 36.438 3.07072L36.4413 3.21819ZM39.4275 3.77825L39.7889 3.94912L39.852 3.81576L39.4906 3.64489L39.4275 3.77825ZM39.8932 3.89485L40.4406 0.686469L40.2952 0.661658L39.7478 3.87003L39.8932 3.89485ZM50.7454 0.275178H47.6376V0.422687H50.7454V0.275178ZM47.6376 0.275178C47.1505 0.275178 46.7161 0.341574 46.3478 0.535273C45.9776 0.729976 45.6812 1.04961 45.4642 1.54269L45.5992 1.60212C45.8048 1.13488 46.0801 0.842779 46.4165 0.665826C46.7549 0.487867 47.1621 0.422687 47.6376 0.422687V0.275178ZM45.4642 1.5426L39.4906 15.0641L39.6255 15.1237L45.5991 1.60221L45.4642 1.5426ZM39.5581 15.1677H43.8099V15.0202H39.5581V15.1677ZM43.8099 15.0939C43.8789 15.12 43.8789 15.12 43.8789 15.12C43.8789 15.12 43.8789 15.12 43.8789 15.12C43.8789 15.1199 43.879 15.1198 43.879 15.1197C43.8791 15.1195 43.8792 15.1192 43.8794 15.1187C43.8797 15.1179 43.8802 15.1166 43.8808 15.1149C43.8821 15.1115 43.8841 15.1064 43.8866 15.0998C43.8916 15.0865 43.899 15.067 43.9084 15.042C43.9273 14.9921 43.9545 14.9203 43.9877 14.833C44.0539 14.6582 44.1439 14.4212 44.2387 14.1718C44.4285 13.6726 44.6375 13.125 44.7156 12.9283L44.5784 12.8739C44.4999 13.0719 44.2904 13.6207 44.1008 14.1193C44.006 14.3688 43.916 14.6059 43.8497 14.7807C43.8166 14.868 43.7894 14.9398 43.7705 14.9898C43.761 15.0148 43.7536 15.0343 43.7486 15.0475C43.7461 15.0542 43.7442 15.0592 43.7429 15.0627C43.7422 15.0644 43.7418 15.0657 43.7414 15.0665C43.7413 15.067 43.7411 15.0673 43.7411 15.0675C43.741 15.0676 43.741 15.0677 43.741 15.0678C43.741 15.0678 43.7409 15.0678 43.7409 15.0678C43.7409 15.0678 43.7409 15.0678 43.8099 15.0939ZM44.6469 12.9748L49.7411 12.9809L49.7413 12.8334L44.6471 12.8273L44.6469 12.9748ZM49.6694 12.9238C49.7286 13.1789 49.8495 13.7251 49.9557 14.2081C50.0087 14.4494 50.0581 14.6748 50.0942 14.8399C50.1122 14.9224 50.127 14.9899 50.1372 15.0367C50.1423 15.0601 50.1463 15.0783 50.149 15.0907C50.1503 15.0969 50.1513 15.1016 50.152 15.1048C50.1524 15.1064 50.1526 15.1076 50.1528 15.1084C50.1529 15.1088 50.153 15.1091 50.153 15.1093C50.153 15.1094 50.1531 15.1095 50.1531 15.1096C50.1531 15.1096 50.1531 15.1096 50.1531 15.1096C50.1531 15.1096 50.1531 15.1096 50.2252 15.0939C50.2972 15.0782 50.2972 15.0782 50.2972 15.0782C50.2972 15.0782 50.2972 15.0782 50.2972 15.0782C50.2972 15.0781 50.2972 15.078 50.2971 15.0779C50.2971 15.0777 50.297 15.0774 50.2969 15.077C50.2968 15.0762 50.2965 15.075 50.2962 15.0734C50.2955 15.0702 50.2944 15.0655 50.2931 15.0593C50.2904 15.0469 50.2864 15.0286 50.2813 15.0052C50.2711 14.9584 50.2563 14.8909 50.2383 14.8084C50.2022 14.6433 50.1528 14.4178 50.0997 14.1764C49.9936 13.6937 49.8725 13.1466 49.8131 12.8905L49.6694 12.9238ZM50.2252 15.1677H53.9999V15.0202H50.2252V15.1677ZM54.0719 15.078L50.8174 0.333036L50.6734 0.364829L53.9278 15.1098L54.0719 15.078ZM45.8726 9.90333C46.0394 9.47676 46.4413 8.44224 46.8015 7.51447C46.9816 7.05056 47.1513 6.61331 47.276 6.29203C47.3383 6.1314 47.3894 5.99975 47.4249 5.90827C47.4426 5.86253 47.4565 5.82682 47.4659 5.80256C47.4706 5.79042 47.4742 5.78115 47.4766 5.77491C47.4778 5.77179 47.4787 5.76942 47.4793 5.76784C47.4796 5.76705 47.4799 5.76645 47.48 5.76606C47.4801 5.76586 47.4802 5.76571 47.4802 5.76561C47.4802 5.76556 47.4802 5.76552 47.4803 5.76549C47.4803 5.76547 47.4803 5.76546 47.4115 5.73878C47.3427 5.71211 47.3427 5.71212 47.3427 5.71215C47.3427 5.71217 47.3427 5.71221 47.3427 5.71226C47.3426 5.71236 47.3426 5.71251 47.3425 5.71271C47.3424 5.71311 47.3421 5.7137 47.3418 5.7145C47.3412 5.71608 47.3403 5.71844 47.3391 5.72156C47.3367 5.7278 47.3331 5.73707 47.3284 5.74921C47.3189 5.77347 47.3051 5.80917 47.2873 5.85492C47.2519 5.9464 47.2008 6.07804 47.1384 6.23867C47.0138 6.55994 46.8441 6.99719 46.664 7.46108C46.3038 8.38892 45.9019 9.42325 45.7352 9.84962L45.8726 9.90333ZM47.3487 5.70013C47.3491 5.69943 47.3501 5.69779 47.3517 5.69571C47.3525 5.69456 47.3566 5.68896 47.3635 5.68327C47.3667 5.68057 47.3747 5.67428 47.3869 5.67017C47.4004 5.66558 47.4237 5.66255 47.4472 5.67612C47.4686 5.68841 47.4769 5.70696 47.4799 5.71549C47.4831 5.7246 47.4838 5.73222 47.484 5.73569C47.4844 5.7429 47.4836 5.74842 47.4834 5.74982C47.483 5.75204 47.4827 5.75368 47.4825 5.75439C47.4822 5.75584 47.482 5.75658 47.4821 5.75612C47.4827 5.75395 47.4847 5.74798 47.4886 5.73694C47.4962 5.71585 47.5086 5.68248 47.5252 5.63887C47.5582 5.55187 47.6066 5.42632 47.6623 5.28184C47.7735 4.99322 47.9134 4.62947 48.0154 4.35089L47.8768 4.30019C47.7754 4.57738 47.6359 4.93991 47.5246 5.22881C47.469 5.37307 47.4204 5.49909 47.3873 5.58655C47.3707 5.63017 47.3578 5.66475 47.3497 5.68734C47.3459 5.69815 47.3425 5.70796 47.3405 5.71488C47.3399 5.71669 47.3392 5.71928 47.3386 5.72216C47.3383 5.72358 47.3378 5.72583 47.3374 5.72854C47.3371 5.73045 47.3363 5.73636 47.3367 5.74384C47.3369 5.74745 47.3375 5.75519 47.3408 5.76438C47.3438 5.773 47.3522 5.79161 47.3736 5.80393C47.3972 5.81752 47.4205 5.8145 47.4342 5.80989C47.4464 5.80575 47.4545 5.79941 47.4578 5.79663C47.4649 5.79077 47.4692 5.7849 47.4703 5.78336C47.4721 5.7809 47.4735 5.77875 47.4743 5.77744L47.3487 5.70013ZM47.874 4.34096L48.1469 5.61738L48.2912 5.58653L48.0182 4.31011L47.874 4.34096ZM48.2191 5.60195C48.147 5.61771 48.147 5.61772 48.147 5.61775C48.147 5.61778 48.147 5.61782 48.147 5.61787C48.1471 5.61798 48.1471 5.61814 48.1471 5.61835C48.1472 5.61878 48.1474 5.61942 48.1476 5.62027C48.1479 5.62198 48.1485 5.62452 48.1492 5.62787C48.1507 5.63458 48.1529 5.64454 48.1557 5.65757C48.1614 5.68363 48.1698 5.72195 48.1805 5.77099C48.202 5.86905 48.2328 6.00997 48.2703 6.18139C48.3452 6.52424 48.4469 6.98908 48.5535 7.47708C48.7669 8.4531 49.0003 9.52168 49.0808 9.89214L49.225 9.86081C49.1444 9.49024 48.911 8.42156 48.6976 7.44558C48.591 6.95758 48.4893 6.49273 48.4144 6.14988C48.3769 5.97846 48.3461 5.83754 48.3246 5.73947C48.3139 5.69044 48.3055 5.65212 48.2998 5.62606C48.297 5.61303 48.2948 5.60306 48.2933 5.59635C48.2926 5.593 48.292 5.59046 48.2917 5.58876C48.2915 5.58791 48.2913 5.58727 48.2912 5.58684C48.2912 5.58662 48.2912 5.58646 48.2911 5.58636C48.2911 5.5863 48.2911 5.58626 48.2911 5.58623C48.2911 5.58621 48.2911 5.58619 48.2191 5.60195ZM49.1529 9.80272H45.8039V9.95023H49.1529V9.80272ZM18.2573 0.322055L14.3163 10.3933L14.4536 10.447L18.3947 0.375809L18.2573 0.322055ZM14.4572 10.4053L14.0375 8.35844L13.893 8.38807L14.3127 10.435L14.4572 10.4053ZM14.0357 8.35135C13.2954 5.97024 10.9941 3.39991 8.42315 2.11289L8.35712 2.24479C10.8977 3.5166 13.1682 6.05786 13.8948 8.39515L14.0357 8.35135ZM8.3191 2.19866L11.9229 15.1138L12.065 15.0741L8.46118 2.15902L8.3191 2.19866ZM11.9941 15.1677L16.2527 15.1632L16.2525 15.0156L11.9939 15.0202L11.9941 15.1677ZM16.3204 15.1185L22.6577 0.378063L22.5222 0.319801L16.1849 15.0603L16.3204 15.1185ZM22.59 0.275178H18.3064V0.422687H22.59V0.275178Z" fill="#2F80ED" mask="url(#path-1-inside-1_4523_203)"/>
</g>
<g filter="url(#filter1_d_4523_203)">
<path d="M10.5301 0.348487H4.05217L4 0.656228C9.0617 1.88195 12.4107 4.84307 13.8012 8.40002L12.3865 1.59463C12.1422 0.657752 11.4345 0.377974 10.5581 0.345459" fill="#F2C94C"/>
</g>
<defs>
<filter id="filter0_d_4523_203" x="4.39014" y="0.0515137" width="53.6096" height="23.2798" filterUnits="userSpaceOnUse" color-interpolation-filters="sRGB">
<feFlood flood-opacity="0" result="BackgroundImageFix"/>
<feColorMatrix in="SourceAlpha" type="matrix" values="0 0 0 0 0 0 0 0 0 0 0 0 0 0 0 0 0 0 127 0" result="hardAlpha"/>
<feOffset dy="4"/>
<feGaussianBlur stdDeviation="2"/>
<feComposite in2="hardAlpha" operator="out"/>
<feColorMatrix type="matrix" values="0 0 0 0 0 0 0 0 0 0 0 0 0 0 0 0 0 0 0.25 0"/>
<feBlend mode="normal" in2="BackgroundImageFix" result="effect1_dropShadow_4523_203"/>
<feBlend mode="normal" in="SourceGraphic" in2="effect1_dropShadow_4523_203" result="shape"/>
</filter>
<filter id="filter1_d_4523_203" x="0" y="0.345459" width="17.8013" height="16.0544" filterUnits="userSpaceOnUse" color-interpolation-filters="sRGB">
<feFlood flood-opacity="0" result="BackgroundImageFix"/>
<feColorMatrix in="SourceAlpha" type="matrix" values="0 0 0 0 0 0 0 0 0 0 0 0 0 0 0 0 0 0 127 0" result="hardAlpha"/>
<feOffset dy="4"/>
<feGaussianBlur stdDeviation="2"/>
<feComposite in2="hardAlpha" operator="out"/>
<feColorMatrix type="matrix" values="0 0 0 0 0 0 0 0 0 0 0 0 0 0 0 0 0 0 0.25 0"/>
<feBlend mode="normal" in2="BackgroundImageFix" result="effect1_dropShadow_4523_203"/>
<feBlend mode="normal" in="SourceGraphic" in2="effect1_dropShadow_4523_203" result="shape"/>
</filter>
</defs>
</svg>
